<?xml version="1.0" encoding="utf-8"?>
<svg version="1.1" id="mdi-android-auto" xmlns="http://www.w3.org/2000/svg" xmlns:xlink="http://www.w3.org/1999/xlink" x="0px"
	 y="0px" viewBox="0 0 24 24" style="enable-background:new 0 0 24 24;" xml:space="preserve">
<path d="M22.8,17.9c0.2,0.2,0.2,0.5,0.2,0.8c0,0.4-0.1,0.7-0.4,0.9c-0.3,0.2-0.6,0.4-1,0.4h-2.5L12,7.2L4.9,20H2.4
	c-0.5,0-0.9-0.2-1.2-0.6S0.9,18.5,1.2,18l9.6-16.3C11.1,1.2,11.5,1,12,1c0.5,0,0.9,0.2,1.2,0.7L22.8,17.9 M4.8,22.3L12,9.4l7.2,12.9
	L18.5,23L12,20.3L5.4,23L4.8,22.3z" fill="#49b34d"/>
</svg>
