<?xml version="1.0" encoding="utf-8"?>
<!-- Generator: Adobe Illustrator 28.3.0, SVG Export Plug-In . SVG Version: 6.00 Build 0)  -->
<svg version="1.1" id="Ebene_1" xmlns="http://www.w3.org/2000/svg" xmlns:xlink="http://www.w3.org/1999/xlink" x="0px" y="0px"
	 viewBox="0 0 567 245" style="enable-background:new 0 0 567 245;" xml:space="preserve">
<style type="text/css">
	.st0{fill:#000044;}
</style>
<path class="st0" d="M60.8,76.5c-5.6,0-10,0.5-13.3,1.4s-5.7,2.7-7.1,5.2c-0.4,0.6-0.7,1.3-0.9,2c-1.1,3.3-1.4,6.8-1.4,10.2
	c0,2.1,0,4.2,0,6.2c0,0.1,0,0.2,0,0.3h22.3v20.9H38.1v71.2v7.6H14.5v-7.6v-71.2H0v-20.9h14.5v-7.6c0-13.4,3.9-23.8,11.2-31.3
	c7.3-7.4,19-10.8,35.1-10V76.5 M157.1,151.4c0-15.5,11.2-27.3,25.7-27.3s25.5,11.8,25.5,27.3c0,15.6-11,27.3-25.5,27.3
	S157.1,167.1,157.1,151.4 M182.8,100.3c-27.9,0-49.7,22.2-49.7,51.1c0,29.1,21.8,51.3,49.7,51.3s49.4-22.2,49.4-51.3
	C232.1,122.5,210.7,100.3,182.8,100.3 M541.4,151.7c14.1,0,25.6-11.5,25.6-25.6s-11.5-25.6-25.6-25.6s-25.6,11.5-25.6,25.6
	C515.8,140.2,527.2,151.7,541.4,151.7 M129.6,100.7c-2.2-0.2-4.3-0.4-6.6-0.4c-4.4,0-9.1,0.6-13.9,1.9s-8.5,3.4-10.7,6.5v-7H74.7
	v99.5h23.8V143c0-5.4,1.4-9.5,4.1-12.3c4.4-4.5,10.6-6.5,16.7-6.8c1.7-0.1,3.5,0,5.3,0.1c1.6,0.2,3.2,0.5,4.7,0.7c0-1,0-2,0-3
	c0-2,0-3.9,0-5.9c0-2.2,0-4.5,0-6.7c0-1.9,0.2-3.8,0.2-5.7c0-0.9,0.2-1.7,0.2-2.6C129.6,100.8,129.6,100.7,129.6,100.7z
	 M475.8,150.8l29.7-49h-28.7l-16.3,31.7L444,101.8h-29l30.1,49l-30.7,50.6h28.7l17.3-33.1l17.7,33.1h28.7L475.8,150.8z M356.9,245
	c14.9,0.5,26.7-3.1,34.7-10.9c7.6-7.4,11.6-18.1,12-33l0,0v-2.4v-97.1h-24.5c0,0,0,14.3,0,28.8v14.9v0.1v14.5
	c0,5.3-1.2,9.7-5.8,13.8c-4.3,3.9-10.9,5.1-15.4,5.1c-2.7,0-10.7-0.9-15.4-7.5c-2.4-3.4-3.9-9.1-4.2-14c-0.3-5-0.3-7.4-0.6-14.7
	c-1.1-30.2-26-47.6-55-40.3c-5,1.3-9,3.4-11.2,6.5v-7.2h-23.8v99.6h23.8v-52v-6c0-5.4,1.5-9.5,4.3-12.3c2.8-2.7,5.8-4.2,9.5-5.1
	c3.7-0.9,6.6-1,8.5-1c2.9,0,6.5,0.8,8,1.2c2.8,0.8,6.3,3.3,8.3,6.2c3.7,5.3,3.3,12.8,3.5,18.9c0.2,7.6,0.4,15.3,2.7,22.7
	c3.2,10.3,9.7,20,19.7,24.6c9,4.1,20,5.2,29.7,3.4c3-0.6,6.3-1.5,9.1-3c1.6-0.9,3.2-1.9,4.5-3.2c0.4,10.7,0.6,17.6-6,22.5
	c-1.8,1.4-4.3,2.5-6.5,2.9c-3.1,0.6-6.5,1-9.7,0.9L356.9,245z"/>
<g>
	<g>
		<path class="st0" d="M97.6,80V29.4c0-1.6-0.1-3.2-0.2-4.8c-0.1-1.7-0.3-3.3-0.5-4.9h6.6l0.9,10h-1c0.9-3.3,2.7-5.9,5.5-7.9
			c2.7-1.9,6-2.9,9.8-2.9s7.1,0.9,9.9,2.6s4.9,4.2,6.5,7.5c1.6,3.2,2.4,7.2,2.4,11.8c0,4.5-0.8,8.4-2.3,11.7
			c-1.5,3.2-3.7,5.8-6.5,7.5c-2.8,1.8-6.1,2.6-9.9,2.6s-7-1-9.7-2.9s-4.6-4.5-5.5-7.8h0.9V80H97.6z M117.3,57c4,0,7.2-1.4,9.6-4.2
			s3.6-6.8,3.6-12.1c0-5.4-1.2-9.5-3.6-12.2c-2.4-2.8-5.6-4.2-9.6-4.2s-7.2,1.4-9.5,4.2c-2.4,2.8-3.6,6.8-3.6,12.2
			c0,5.3,1.2,9.4,3.6,12.1C110.2,55.6,113.4,57,117.3,57z"/>
		<path class="st0" d="M165.4,62.6c-4.1,0-7.6-0.9-10.6-2.6c-3-1.8-5.3-4.3-6.9-7.6c-1.6-3.3-2.4-7.2-2.4-11.6
			c0-4.5,0.8-8.4,2.4-11.7c1.6-3.2,3.9-5.8,6.9-7.5c3-1.8,6.5-2.6,10.5-2.6c4.1,0,7.6,0.9,10.6,2.6c3,1.8,5.3,4.3,7,7.5
			s2.5,7.1,2.5,11.7c0,4.5-0.8,8.4-2.5,11.6c-1.7,3.3-4,5.8-7,7.6C172.9,61.7,169.4,62.6,165.4,62.6z M165.4,57c4,0,7.1-1.4,9.5-4.2
			s3.5-6.8,3.5-12.1c0-5.4-1.2-9.5-3.6-12.2c-2.4-2.8-5.6-4.2-9.5-4.2c-4,0-7.1,1.4-9.5,4.2s-3.5,6.8-3.5,12.2
			c0,5.3,1.2,9.4,3.5,12.1C158.2,55.6,161.4,57,165.4,57z"/>
		<path class="st0" d="M207.2,61.8l-15.6-42.2h7.2l13,37.1h-2.2L223,19.6h5.9l13.2,37.1H240l13.1-37.1h6.9l-15.7,42.2h-6.6
			l-13.6-37.7h3.4l-13.7,37.7C213.8,61.8,207.2,61.8,207.2,61.8z"/>
		<path class="st0" d="M287.7,62.6c-6.6,0-11.8-1.9-15.6-5.8c-3.8-3.8-5.7-9.2-5.7-16c0-4.4,0.8-8.3,2.5-11.5c1.7-3.3,4-5.8,7.1-7.6
			c3-1.8,6.5-2.7,10.4-2.7s7.1,0.8,9.7,2.4c2.6,1.6,4.6,3.9,6,6.9s2.1,6.5,2.1,10.6v2.5h-32.7v-4.3h28.2l-1.4,1.1c0-4.5-1-8-3-10.5
			s-5-3.8-9-3.8c-4.2,0-7.5,1.5-9.8,4.4c-2.3,3-3.5,6.9-3.5,11.9V41c0,5.3,1.3,9.3,3.9,12s6.3,4.1,11,4.1c2.5,0,4.9-0.4,7.1-1.1
			c2.2-0.8,4.3-2,6.3-3.7l2.4,4.8c-1.8,1.8-4.2,3.2-7,4.2C293.8,62.1,290.8,62.6,287.7,62.6z"/>
		<path class="st0" d="M314.5,61.8v-32c0-1.7,0-3.4-0.1-5.1c-0.1-1.7-0.2-3.4-0.4-5h6.6l0.8,10.2l-1.2,0.1c0.6-2.5,1.5-4.6,2.9-6.2
			s3.1-2.8,5-3.7c1.9-0.8,3.9-1.2,6-1.2c0.8,0,1.6,0,2.2,0.1c0.6,0.1,1.2,0.2,1.8,0.4l-0.1,6c-0.8-0.3-1.6-0.5-2.3-0.5
			s-1.5-0.1-2.4-0.1c-2.5,0-4.6,0.6-6.4,1.8s-3.2,2.7-4.1,4.5s-1.4,3.8-1.4,5.9v24.9L314.5,61.8L314.5,61.8z"/>
		<path class="st0" d="M363.9,62.6c-6.6,0-11.8-1.9-15.6-5.8c-3.8-3.8-5.7-9.2-5.7-16c0-4.4,0.8-8.3,2.5-11.5c1.7-3.3,4-5.8,7.1-7.6
			c3-1.8,6.5-2.7,10.4-2.7s7.1,0.8,9.7,2.4c2.6,1.6,4.6,3.9,6,6.9s2.1,6.5,2.1,10.6v2.5h-32.7v-4.3H376l-1.4,1.1c0-4.5-1-8-3-10.5
			s-5-3.8-9-3.8c-4.2,0-7.5,1.5-9.8,4.4c-2.4,2.9-3.5,6.9-3.5,11.9V41c0,5.3,1.3,9.3,3.9,12s6.3,4.1,11,4.1c2.5,0,4.9-0.4,7.1-1.1
			c2.2-0.8,4.3-2,6.3-3.7l2.4,4.8c-1.8,1.8-4.2,3.2-7,4.2C370,62.1,367,62.6,363.9,62.6z"/>
		<path class="st0" d="M406.8,62.6c-3.7,0-6.9-0.9-9.7-2.6c-2.8-1.8-5-4.3-6.5-7.5c-1.5-3.2-2.3-7.1-2.3-11.7s0.8-8.5,2.3-11.8
			c1.5-3.2,3.7-5.7,6.5-7.5c2.8-1.7,6-2.6,9.7-2.6c3.8,0,7.1,1,9.9,2.9s4.6,4.5,5.6,7.7h-1V0h6.8v61.8h-6.7V51.7h0.9
			c-0.9,3.4-2.7,6-5.5,7.9C413.9,61.6,410.6,62.6,406.8,62.6z M408.2,57c4,0,7.2-1.4,9.6-4.2s3.6-6.8,3.6-12.1
			c0-5.4-1.2-9.5-3.6-12.2c-2.4-2.8-5.6-4.2-9.6-4.2s-7.2,1.4-9.5,4.2c-2.4,2.8-3.6,6.8-3.6,12.2c0,5.3,1.2,9.4,3.6,12.1
			C401.1,55.6,404.3,57,408.2,57z"/>
		<path class="st0" d="M484.3,62.6c-3.8,0-7.1-1-9.8-2.9c-2.7-1.9-4.6-4.6-5.5-7.9h0.9v10.1h-6.7V0h6.8v29.5h-1
			c1-3.2,2.8-5.8,5.5-7.7s6-2.9,9.8-2.9s7.1,0.9,9.9,2.6c2.8,1.8,4.9,4.3,6.5,7.5c1.5,3.2,2.3,7.1,2.3,11.7s-0.8,8.4-2.4,11.7
			c-1.6,3.2-3.7,5.8-6.5,7.5C491.4,61.7,488.1,62.6,484.3,62.6z M482.9,57c4,0,7.2-1.4,9.6-4.1c2.4-2.7,3.6-6.8,3.6-12.2
			s-1.2-9.5-3.6-12.2c-2.4-2.8-5.6-4.2-9.6-4.2s-7.2,1.4-9.5,4.2c-2.4,2.8-3.6,6.8-3.6,12.2c0,5.3,1.2,9.4,3.6,12.1
			C475.8,55.6,478.9,57,482.9,57z"/>
		<path class="st0" d="M511.9,80.9l-1.6-5.6c2.6-0.6,4.8-1.3,6.6-2.1c1.8-0.8,3.2-1.9,4.4-3.2c1.2-1.3,2.2-3,3-5l2.2-5l-0.2,2.9
			l-18.4-43.1h7.4l15.2,37h-2.2l15-37h7.1L531,65.3c-1.1,2.7-2.4,4.9-3.7,6.8c-1.3,1.8-2.8,3.3-4.3,4.5c-1.5,1.1-3.2,2.1-5.1,2.7
			S514.1,80.5,511.9,80.9z"/>
	</g>
</g>
</svg>
